# xmcd
#
# Track frame offsets:
#	187
#	18037
#	34612
#	55387
#	73287
#	85537
#	99137
#	111187
#	121687
#	130012
#	145462
#	159862
#
# Disc length: 2313 seconds
# Revision: 6
# Processed by: cddbd v1.5.2PL0 Copyright (c) Steve Scherf et al.
# Submitted via: dBpowerAMP V12.0
#
DISCID=8e09070c
DTITLE=Lightnin' Hopkins - Morning Blues
DYEAR=1996
DGENRE=Blues
TTITLE0=Found My Baby Crying
TTITLE1=Fishing Clothes
TTITLE2=Morning Blues
TTITLE3=Gamblers Blues
TTITLE4=Lonesome Dog Blues
TTITLE5=Last Affair
TTITLE6=Rock Me Mama
TTITLE7=Mr. Charlie
TTITLE8=You're Too Fast
TTITLE9=Love Me This Morning
TTITLE10=Ride In Your New Automobile
TTITLE11=Breakfast Time
EXTD=
EXTT0=
EXTT1=
EXTT2=
EXTT3=
EXTT4=
EXTT5=
EXTT6=
EXTT7=
EXTT8=
EXTT9=
EXTT10=
EXTT11=
PLAYORDER=
